<svg aria-hidden="true" style="position: absolute; width: 0; height: 0; overflow: hidden;" version="1.1" xmlns="http://www.w3.org/2000/svg" xmlns:xlink="http://www.w3.org/1999/xlink">
<defs>
<symbol id="icon-burger" viewBox="0 0 35 32">
<title>burger</title>
<path d="M33.369 21.346h-31.397c-1.090 0.005-1.972 0.89-1.972 1.981 0 0.003 0 0.007 0 0.010v-0 1.606c0.003 1.088 0.884 1.97 1.972 1.972h0.464v0.464c0 0 0 0 0 0 0 2.543 2.046 4.609 4.582 4.64l0.003 0h21.285c2.563 0 4.64-2.078 4.64-4.64v0-0.464h0.464c1.089-0.003 1.972-0.883 1.977-1.972v-1.606c0-0.003 0-0.006 0-0.010 0-1.094-0.887-1.981-1.981-1.981-0.013 0-0.026 0-0.039 0l0.002-0zM31.555 27.378c0 0.008 0 0.018 0 0.028 0 1.779-1.442 3.22-3.22 3.22-0.010 0-0.020-0-0.029-0h-21.284c-1.774-0.003-3.211-1.441-3.211-3.216 0-0.011 0-0.023 0-0.034v0.002-0.464h27.745zM33.972 24.923c0 0.003 0 0.006 0 0.009 0 0.325-0.264 0.589-0.589 0.589-0.005 0-0.010-0-0.015-0h-31.396c-0.319-0.003-0.577-0.261-0.58-0.58v-1.606c-0-0.003-0-0.006-0-0.009 0-0.322 0.259-0.584 0.58-0.589h31.397c0.319 0.005 0.577 0.261 0.585 0.579v0.001z"></path>
<path d="M7.499 17.568l2.543 1.856 2.538-1.856 2.543 1.856 2.543-1.856 2.543 1.856 2.543-1.856 2.543 1.856 2.538-1.856 2.548 1.856 2.956-2.158-0.821-1.123-2.135 1.555-2.548-1.856-2.538 1.856-2.543-1.856-2.543 1.856-2.543-1.856-2.543 1.856-2.543-1.856-2.538 1.856-2.543-1.856-2.538 1.856-2.135-1.555-0.821 1.123 2.956 2.158 2.538-1.856z"></path>
<path d="M32.896 14.427c0-0.283 0-1.211 0-1.392-0.302-7.244-7.002-13.035-15.225-13.035s-14.923 5.791-15.239 13.035c0 0.181 0 1.109 0 1.392zM17.671 1.392c7.425 0 13.527 5.174 13.847 11.643h-27.694c0.32-6.469 6.408-11.643 13.847-11.643z"></path>
<path d="M18.599 6.979c0 0.513-0.416 0.928-0.928 0.928s-0.928-0.415-0.928-0.928c0-0.513 0.416-0.928 0.928-0.928s0.928 0.415 0.928 0.928z"></path>
<path d="M14.886 4.678c0 0.513-0.415 0.928-0.928 0.928s-0.928-0.415-0.928-0.928c0-0.513 0.415-0.928 0.928-0.928s0.928 0.415 0.928 0.928z"></path>
<path d="M22.311 4.678c0 0.513-0.416 0.928-0.928 0.928s-0.928-0.415-0.928-0.928c0-0.513 0.416-0.928 0.928-0.928s0.928 0.415 0.928 0.928z"></path>
</symbol>
<symbol id="icon-facebook" viewBox="0 0 15 32">
<title>facebook</title>
<path d="M10.61 5.677h4.038v-5.677h-4.866c-5.288 0.304-7.181 4.038-6.403 10.323h-3.379v5.947h3.379v15.73h6.42v-15.73h4.815v-5.947h-4.832c-0.034-1.757-0.068-4.055 0.828-4.646z"></path>
</symbol>
<symbol id="icon-fullscreen" viewBox="0 0 32 32">
<title>fullscreen</title>
<path d="M0 0v9.6h4.8v-4.8h4.8v-4.8h-9.6z"></path>
<path d="M4.8 22.4h-4.8v9.6h9.6v-4.8h-4.8v-4.8z"></path>
<path d="M27.2 0h-4.8v4.8h4.8v4.8h4.8v-9.6h-4.8z"></path>
<path d="M27.2 27.2h-4.8v4.8h9.6v-9.6h-4.8v4.8z"></path>
</symbol>
<symbol id="icon-home" viewBox="0 0 33 32">
<title>home</title>
<path d="M13.048 28.9h7.077v-10.584h-7.077v10.584zM18.828 27.604h-4.48v-7.992h4.48z"></path>
<path d="M32.119 17.444l0.92-0.92-4.383-4.383v-11.933h-6.099v5.821l-6.037-6.028-16.52 16.524 0.92 0.92 3.463-3.463v16.719h-1.729v1.3h28.241v-1.3h-2.238v-16.719zM23.844 1.522h3.512v9.332l-3.512-3.512zM27.356 30.713h-21.672v-18.032l10.836-10.836 10.836 10.836z"></path>
<path d="M13.158 12.035c0 1.893 1.535 3.428 3.428 3.428s3.428-1.535 3.428-3.428c0-1.893-1.535-3.428-3.428-3.428v0c-1.893 0-3.428 1.535-3.428 3.428v0zM16.586 9.823c1.221 0 2.211 0.99 2.211 2.211s-0.99 2.211-2.211 2.211c-1.221 0-2.211-0.99-2.211-2.211v0c0.008-1.216 0.995-2.198 2.211-2.198 0 0 0 0 0 0v0z"></path>
<path d="M7.479 18.315h1.327v1.743h-1.327v-1.743z"></path>
<path d="M10.106 18.315h1.327v1.743h-1.327v-1.743z"></path>
<path d="M7.479 20.969h1.327v1.743h-1.327v-1.743z"></path>
<path d="M10.106 20.969h1.327v1.743h-1.327v-1.743z"></path>
<path d="M21.606 18.315h1.327v1.743h-1.327v-1.743z"></path>
<path d="M24.229 18.315h1.327v1.743h-1.327v-1.743z"></path>
<path d="M21.606 20.969h1.327v1.743h-1.327v-1.743z"></path>
<path d="M24.229 20.969h1.327v1.743h-1.327v-1.743z"></path>
</symbol>
<symbol id="icon-htmlacademy" viewBox="0 0 25 32">
<title>htmlacademy</title>
<path d="M12.778 0.097l-0.133-0.015-12.564 1.317v23.029l12.564 7.475 12.564-7.475v-23.029zM23.566 23.494l-10.921 6.497-10.921-6.497v-9.44l10.875 6.473 0.018 1.173-7.461-4.44-0.010 1.147 7.488 4.5 0.018 1.204-7.487-4.453-0.010 1.147 7.488 4.5 7.561-4.523v-4.875l3.368-2.012zM23.566 12.672l-2.996 1.759-1.379 0.819-6.576-3.919-0.010 1.147 5.621 3.344-0.049 0.030-0.121 0.070-0.799 0.46-4.641-2.759-0.010 1.147 3.663 2.179-0.868 0.57-0.020 0.011-2.765-1.63-0.010 1.147 1.812 1.062-1.85 1.111-10.812-6.432 10.831-6.512zM23.566 11.525l-10.976-6.473-10.865 6.466v-8.639l10.921-1.147 10.921 1.147z"></path>
</symbol>
<symbol id="icon-like" viewBox="0 0 35 32">
<title>like</title>
<path d="M19.808 5.84l-1.008 4.688-0.848 3.872h13.888v3.296l-4.64 11.104h-14.4v-16l6.992-6.976zM3.2 16v0zM21.12 0l-10.56 10.56c-0.592 0.496-0.966 1.236-0.966 2.064 0 0.062 0.002 0.123 0.006 0.184l-0-0.008v16c0 1.767 1.433 3.2 3.2 3.2v0h14.4c1.283-0.022 2.381-0.796 2.872-1.9l0.008-0.020 4.8-11.36c0.105-0.278 0.166-0.6 0.166-0.936 0-0.065-0.002-0.129-0.007-0.192l0 0.009v-3.2h0.16c0-1.767-1.433-3.2-3.2-3.2v0h-10.080l1.6-7.36v-0.48c-0.046-0.666-0.279-1.27-0.646-1.769l0.006 0.009-1.76-1.6zM6.4 12.8h-6.4v19.2h6.4v-19.2zM35.2 14.4v0z"></path>
</symbol>
<symbol id="icon-mail" viewBox="0 0 43 32">
<title>mail</title>
<path d="M21.333 21.333c-1-0.090-1.908-0.416-2.69-0.921l0.023 0.014-18.667-9.76v18.667c0 1.473 1.194 2.667 2.667 2.667v0h37.333c1.473 0 2.667-1.194 2.667-2.667v0-18.667l-18.667 9.76c-0.759 0.491-1.667 0.817-2.644 0.905l-0.023 0.002zM40 0h-37.333c-1.473 0-2.667 1.194-2.667 2.667v0 2.027l21.333 11.307 21.333-11.2v-2.133c0-1.473-1.194-2.667-2.667-2.667v0z"></path>
</symbol>
<symbol id="icon-phone" viewBox="0 0 32 32">
<title>phone</title>
<path d="M6.4 13.867c2.669 5.043 6.69 9.064 11.583 11.661l0.15 0.073 3.911-3.911c0.263-0.322 0.66-0.525 1.104-0.525 0.247 0 0.479 0.063 0.681 0.174l-0.007-0.004c1.849 0.676 3.984 1.068 6.21 1.068 0.067 0 0.133-0 0.2-0.001l-0.010 0c0.033-0.002 0.072-0.004 0.11-0.004 0.923 0 1.671 0.748 1.671 1.671 0 0.039-0.001 0.077-0.004 0.115l0-0.005v6.044c0.002 0.033 0.004 0.072 0.004 0.11 0 0.923-0.748 1.671-1.671 1.671-0.039 0-0.077-0.001-0.115-0.004l0.005 0c-16.691 0-30.222-13.531-30.222-30.222v0c-0.002-0.033-0.004-0.071-0.004-0.11 0-0.923 0.748-1.671 1.671-1.671 0.039 0 0.077 0.001 0.115 0.004l-0.005-0h6.222c0.033-0.002 0.072-0.004 0.11-0.004 0.923 0 1.671 0.748 1.671 1.671 0 0.039-0.001 0.077-0.004 0.115l0-0.005c0.008 2.293 0.398 4.492 1.109 6.541l-0.043-0.141c0.037 0.15 0.058 0.322 0.058 0.499 0 0.48-0.155 0.925-0.418 1.285l0.004-0.006-4.089 3.911z"></path>
</symbol>
<symbol id="icon-present" viewBox="0 0 27 32">
<title>present</title>
<path d="M25.645 9.475h-10.404c5.796-2.902 6.261-4.735 6.069-5.762-0.511-1.671-2.412-2.958-4.22-2.276-2.34 0.878-2.983 4.373-3.631 6.9-0.806-2.557-1.585-5.818-3.41-7.471-0.554-0.542-1.313-0.877-2.15-0.877-0.095 0-0.19 0.004-0.283 0.013l0.012-0.001c-1.705 0.149-4.113 2.267-3.133 4.624 0.946 2.263 4.066 3.695 6.12 4.838h-9.411c-0.667 0.002-1.206 0.543-1.206 1.21 0 0.005 0 0.009 0 0.013v-0.001 4.765c0.002 0.667 0.543 1.206 1.21 1.206 0 0 0 0 0 0h0.111v15.344h24.294v-15.344h0.047c0.659-0.010 1.189-0.546 1.189-1.206 0-0 0-0 0-0v0-4.765c-0.002-0.666-0.54-1.206-1.206-1.21h-0zM17.803 2.502c0.882-0.128 2.088 0.55 2.204 1.351 0.166 1.164-1.428 2.216-2.131 2.706-1.057 0.733-2.067 1.112-3.056 1.705 0.367-1.551 1.066-5.477 2.983-5.762zM8.196 6.7c-0.95-0.627-2.745-1.867-2.702-3.29 0.047-1.496 2.408-2.749 3.7-1.62 1.62 1.424 2.395 4.688 2.983 6.973-1.55-0.661-2.857-1.352-4.102-2.134l0.121 0.071zM10.702 30.751h-8.145v-14.095h8.145zM10.702 15.378h-9.424v-4.624h9.424zM14.964 30.751h-3.009v-19.998h3.013zM24.341 30.751h-8.124v-14.095h8.132zM25.573 15.378h-9.377v-4.624h9.377z"></path>
</symbol>
<symbol id="icon-replay" viewBox="0 0 26 32">
<title>replay</title>
<path d="M12.8 6.4v-6.4l-8 8 8 8v-6.4c5.302 0 9.6 4.298 9.6 9.6s-4.298 9.6-9.6 9.6c-5.302 0-9.6-4.298-9.6-9.6v0h-3.2c0 7.069 5.731 12.8 12.8 12.8s12.8-5.731 12.8-12.8c0-7.069-5.731-12.8-12.8-12.8v0z"></path>
</symbol>
<symbol id="icon-subtitles" viewBox="0 0 51 32">
<title>subtitles</title>
<path d="M46.4 0h-41.6c-2.651 0-4.8 2.149-4.8 4.8v0 22.4c0 2.651 2.149 4.8 4.8 4.8v0h41.6c2.651 0 4.8-2.149 4.8-4.8v0-22.4c0-2.651-2.149-4.8-4.8-4.8v0zM23.040 25.36c-0.803 0.172-1.726 0.271-2.671 0.272h-0.001c-0.021 0-0.047 0-0.072 0-1.119 0-2.195-0.188-3.197-0.533l0.069 0.021c-1.030-0.351-1.912-0.898-2.642-1.602l0.002 0.002c-0.762-0.852-1.354-1.872-1.712-2.997l-0.016-0.059c-0.457-1.278-0.721-2.752-0.721-4.287 0-0.062 0-0.124 0.001-0.186l-0 0.009c-0.004-0.123-0.007-0.268-0.007-0.413 0-1.488 0.267-2.913 0.754-4.232l-0.027 0.084c0.464-1.162 1.144-2.15 1.996-2.956l0.004-0.004c0.738-0.702 1.631-1.25 2.622-1.585l0.050-0.015c0.876-0.304 1.885-0.48 2.936-0.48 0.014 0 0.028 0 0.042 0h-0.002c0.054-0.001 0.117-0.001 0.181-0.001 0.881 0 1.742 0.082 2.577 0.239l-0.086-0.013c0.689 0.115 1.302 0.287 1.886 0.518l-0.062-0.022-0.72 3.072c-0.417-0.194-0.901-0.344-1.407-0.428l-0.033-0.004c-0.59-0.094-1.277-0.152-1.975-0.16l-0.009-0c-0.037-0.001-0.081-0.002-0.124-0.002-1.364 0-2.583 0.62-3.39 1.594l-0.006 0.007c-0.853 1.181-1.364 2.657-1.364 4.253 0 0.192 0.007 0.383 0.022 0.572l-0.002-0.025c-0 0.024-0 0.053-0 0.081 0 0.898 0.117 1.769 0.336 2.598l-0.016-0.071c0.196 0.771 0.527 1.445 0.97 2.030l-0.010-0.014c0.422 0.547 0.958 0.986 1.574 1.285l0.026 0.011c0.63 0.294 1.368 0.465 2.146 0.465 0.033 0 0.066-0 0.099-0.001l-0.005 0c0.042 0.001 0.091 0.001 0.141 0.001 0.667 0 1.313-0.088 1.927-0.253l-0.052 0.012c0.541-0.152 1.014-0.359 1.45-0.623l-0.026 0.015 0.736 2.944c-0.621 0.435-1.361 0.744-2.161 0.876l-0.031 0.004zM36.96 25.36c-0.808 0.173-1.736 0.272-2.688 0.272h-0c-0.022 0-0.048 0-0.074 0-1.119 0-2.193-0.188-3.195-0.533l0.069 0.021c-1.031-0.347-1.914-0.895-2.642-1.602l0.002 0.002c-0.783-0.826-1.399-1.819-1.79-2.918l-0.018-0.058c-0.402-1.203-0.634-2.588-0.634-4.027 0-0.182 0.004-0.363 0.011-0.543l-0.001 0.026c-0.003-0.099-0.005-0.215-0.005-0.332 0-1.518 0.277-2.971 0.784-4.312l-0.028 0.084c0.449-1.16 1.113-2.148 1.95-2.958l0.002-0.002c0.742-0.706 1.64-1.254 2.638-1.586l0.050-0.014c0.871-0.304 1.875-0.48 2.92-0.48 0.014 0 0.028 0 0.042 0h-0.002c0.051-0.001 0.111-0.001 0.171-0.001 0.89 0 1.76 0.082 2.605 0.239l-0.088-0.013c0.681 0.112 1.289 0.284 1.866 0.517l-0.058-0.021-0.704 3.072c-0.421-0.194-0.911-0.344-1.423-0.428l-0.033-0.005c-0.602-0.097-1.3-0.155-2.011-0.16l-0.005-0c-0.037-0.001-0.081-0.002-0.125-0.002-1.368 0-2.592 0.62-3.405 1.595l-0.006 0.007c-0.843 1.186-1.348 2.664-1.348 4.26 0 0.19 0.007 0.378 0.021 0.564l-0.002-0.025c-0 0.024-0 0.052-0 0.081 0 0.898 0.117 1.769 0.336 2.598l-0.016-0.071c0.196 0.771 0.527 1.445 0.97 2.030l-0.010-0.014c0.422 0.547 0.958 0.986 1.574 1.285l0.026 0.011c0.629 0.293 1.365 0.465 2.142 0.465 0.029 0 0.058-0 0.087-0.001l-0.004 0c0.048 0.001 0.103 0.002 0.16 0.002 0.66 0 1.299-0.088 1.907-0.254l-0.051 0.012c0.547-0.152 1.026-0.359 1.467-0.623l-0.027 0.015 0.736 2.944c-0.607 0.428-1.33 0.737-2.112 0.875l-0.032 0.005z"></path>
</symbol>
<symbol id="icon-twitter" viewBox="0 0 38 32">
<title>twitter</title>
<path d="M24.622 0.327c0.696-0.246 1.499-0.387 2.334-0.387 2.359 0 4.454 1.131 5.773 2.879l0.013 0.018c1.506-0.48 2.99-1.026 4.518-1.506-0.046 1.535-0.783 2.89-1.91 3.768l-0.011 0.008c0.117 0.014 0.253 0.022 0.391 0.022 0.993 0 1.891-0.409 2.533-1.069l0.001-0.001c-0.442 1.953-1.743 3.534-3.476 4.349l-0.038 0.016c-0.524 14.385-7.138 24.011-22.658 23.618h-1.070c-0.917 0-9.364-0.982-10.914-4.016 0.654 0.105 1.408 0.164 2.176 0.164 3.145 0 6.057-1.002 8.433-2.704l-0.044 0.030c-2.183-0.655-6.046-1.026-6.701-6.287 0.484 0.186 1.043 0.294 1.628 0.294 0.336 0 0.663-0.036 0.979-0.103l-0.031 0.005c-2.707-1.812-5.719-3.34-5.544-8.033 0.751 0.628 1.727 1.010 2.792 1.010 0.077 0 0.154-0.002 0.231-0.006l-0.011 0c-1.572-0.524-4.431-7.16-2.008-10.565 4.082 3.951 8.404 7.684 16.087 8.055 0.48-4.889 2.554-8.164 6.527-9.561z"></path>
</symbol>
<symbol id="icon-youtube" viewBox="0 0 46 32">
<title>youtube</title>
<path d="M39.121 0h-32.662c-3.562 0.013-6.446 2.897-6.459 6.458v19.060c0.026 3.552 2.905 6.424 6.458 6.437h32.663c0.014 0 0.030 0 0.046 0 3.564 0 6.456-2.876 6.482-6.434v-19.061c-0.026-3.573-2.928-6.459-6.505-6.459-0.008 0-0.016 0-0.024 0h0.001zM15.977 23.715v-15.452l15.521 7.715z"></path>
</symbol>
</defs>
</svg>
